<?xml version="1.0" encoding="iso-8859-1"?>
<!-- Generator: Adobe Illustrator 19.0.0, SVG Export Plug-In . SVG Version: 6.00 Build 0)  -->
<svg version="1.1" id="Layer_1" xmlns="http://www.w3.org/2000/svg" xmlns:xlink="http://www.w3.org/1999/xlink" x="0px" y="0px"
	 viewBox="0 0 512 512" style="enable-background:new 0 0 512 512;" xml:space="preserve">
<g>
	<g>
		<path d="M512,32.002c0-8.555-3.328-16.586-9.375-22.633C496.578,3.33,488.547,0.002,480,0.002s-16.594,3.328-22.624,9.367
			L229.393,237.344l-7.531-7.546c-4.172-4.164-10.922-4.164-15.094,0l-36.25,36.257c-18.031-8.758-37.047-13.375-56.031-13.375
			c-33.547,0-65.531,14.258-92.515,41.243l-3.766,3.766c-4.156-4.172-10.922-4.172-15.078,0c-4.171,4.156-4.171,10.906,0,15.078
			L199.22,508.874c2.094,2.078,4.812,3.125,7.547,3.125c2.735,0,5.469-1.047,7.547-3.125c4.172-4.172,4.172-10.922,0-15.094
			l3.75-3.75c28.875-28.875,43.062-63.125,41.078-99.107c-0.938-16.719-5.469-33.453-13.234-49.422l36.281-36.281
			c4.172-4.156,4.172-10.906,0-15.078l-7.531-7.547L502.625,54.627C508.672,48.58,512,40.549,512,32.002z M202.987,474.936
			l-3.766,3.766L33.301,312.766l3.75-3.766c22.906-22.891,49.671-35,77.437-35c29.656,0,59.749,13.781,84.733,38.766
			c23.359,23.359,37.078,51.531,38.609,79.328C239.486,421.842,227.44,450.498,202.987,474.936z M234.83,322.406
			c-5.859-8.641-12.734-16.938-20.515-24.719c-7.812-7.812-16.094-14.688-24.719-20.547l24.719-24.711l15.078,15.086
			c-4.156,4.164-4.156,10.922,0,15.078c2.093,2.094,4.812,3.125,7.546,3.125s5.469-1.031,7.547-3.125l15.078,15.094L234.83,322.406z
			 M487.547,39.541L259.564,267.516l-15.078-15.086L472.453,24.455c2.016-2.016,4.703-3.125,7.547-3.125s5.531,1.109,7.547,3.125
			s3.125,4.695,3.125,7.547C490.672,34.846,489.562,37.525,487.547,39.541z"/>
	</g>
</g>
<g>
	<g>
		<path d="M191.689,320.311c-32.92-32.92-67.842-35.53-91.342-31.905c-25.172,3.859-42.609,15.5-43.328,16
			c-4.875,3.297-6.172,9.938-2.875,14.812c3.297,4.891,9.921,6.172,14.796,2.875c0.141-0.094,14.781-9.75,35.422-12.719
			c26.796-3.875,51.093,4.875,72.233,26.031c2.094,2.062,4.812,3.109,7.547,3.109c2.735,0,5.453-1.047,7.547-3.109
			C195.845,331.217,195.845,324.467,191.689,320.311z"/>
	</g>
</g>
<g>
</g>
<g>
</g>
<g>
</g>
<g>
</g>
<g>
</g>
<g>
</g>
<g>
</g>
<g>
</g>
<g>
</g>
<g>
</g>
<g>
</g>
<g>
</g>
<g>
</g>
<g>
</g>
<g>
</g>
</svg>
