<?xml version="1.0" encoding="iso-8859-1"?>
<!-- Generator: Adobe Illustrator 19.0.0, SVG Export Plug-In . SVG Version: 6.00 Build 0)  -->
<svg version="1.1" id="Layer_1" xmlns="http://www.w3.org/2000/svg" xmlns:xlink="http://www.w3.org/1999/xlink" x="0px" y="0px"
	 viewBox="0 0 512 512" style="enable-background:new 0 0 512 512;" xml:space="preserve">
<g>
	<g>
		<g>
			<path d="M267.477,377.446c-4.471-1.604-9.327,0.725-10.914,5.171c-1.57,4.437,0.742,9.327,5.18,10.906
				c4.787,1.707,8.542,5.427,10.291,10.206c1.263,3.456,4.54,5.606,8.013,5.606c0.981,0,1.971-0.171,2.935-0.529
				c4.429-1.621,6.699-6.519,5.086-10.94C284.561,388.301,277.06,380.86,267.477,377.446z"/>
			<path d="M63.531,100.966c12.186,8.124,21.803,14.532,21.803,44.1c0,4.71,3.814,8.533,8.533,8.533s8.533-3.823,8.533-8.533
				c0-38.699-15.616-49.109-29.397-58.3C62.089,79.497,53.231,73.591,51.507,51.2H128c4.719,0,8.533-3.823,8.533-8.533
				c0-14.114,11.486-25.6,25.6-25.6h187.733c14.114,0,25.6,11.486,25.6,25.6c0,4.71,3.814,8.533,8.533,8.533h76.493
				c-1.724,22.391-10.581,28.297-21.495,35.567c-13.781,9.19-29.397,19.601-29.397,58.3c0,4.71,3.814,8.533,8.533,8.533
				c4.719,0,8.533-3.823,8.533-8.533c0-29.568,9.617-35.977,21.803-44.1c13.781-9.19,29.397-19.601,29.397-58.3
				c0-4.71-3.814-8.533-8.533-8.533h-77.67C387.712,14.686,370.466,0,349.867,0H162.133c-20.599,0-37.845,14.686-41.796,34.133
				h-77.67c-4.719,0-8.533,3.823-8.533,8.533C34.133,81.365,49.749,91.776,63.531,100.966z"/>
			<path d="M256,341.333c-37.641,0-68.267,30.626-68.267,68.267c0,37.641,30.626,68.267,68.267,68.267
				c37.641,0,68.267-30.626,68.267-68.267C324.267,371.959,293.641,341.333,256,341.333z M256,460.8
				c-28.237,0-51.2-22.963-51.2-51.2c0-28.237,22.963-51.2,51.2-51.2c28.237,0,51.2,22.963,51.2,51.2
				C307.2,437.837,284.237,460.8,256,460.8z"/>
			<path d="M267.477,223.846c-4.471-1.604-9.327,0.725-10.914,5.171c-1.57,4.437,0.742,9.327,5.18,10.906
				c4.787,1.707,8.542,5.427,10.291,10.206c1.263,3.456,4.54,5.606,8.013,5.606c0.981,0,1.971-0.171,2.935-0.529
				c4.429-1.621,6.699-6.519,5.086-10.94C284.561,234.701,277.06,227.26,267.477,223.846z"/>
			<path d="M256,187.733c-37.641,0-68.267,30.626-68.267,68.267c0,37.641,30.626,68.267,68.267,68.267
				c37.641,0,68.267-30.626,68.267-68.267C324.267,218.359,293.641,187.733,256,187.733z M256,307.2
				c-28.237,0-51.2-22.963-51.2-51.2s22.963-51.2,51.2-51.2c28.237,0,51.2,22.963,51.2,51.2S284.237,307.2,256,307.2z"/>
			<path d="M469.333,187.733h-76.8V76.8c0-4.71-3.814-8.533-8.533-8.533s-8.533,3.823-8.533,8.533v119.467
				c0,4.71,3.814,8.533,8.533,8.533h76.493c-1.724,22.391-10.581,28.297-21.495,35.567c-13.781,9.19-29.397,19.601-29.397,58.3
				c0,4.71,3.814,8.533,8.533,8.533c4.719,0,8.533-3.823,8.533-8.533c0-29.568,9.617-35.977,21.803-44.1
				c13.781-9.19,29.397-19.601,29.397-58.3C477.867,191.556,474.052,187.733,469.333,187.733z"/>
			<path d="M267.477,70.246c-4.471-1.596-9.327,0.734-10.914,5.171c-1.57,4.437,0.742,9.327,5.18,10.906
				c4.787,1.707,8.542,5.427,10.291,10.206c1.263,3.456,4.54,5.606,8.013,5.606c0.981,0,1.971-0.171,2.935-0.529
				c4.429-1.621,6.699-6.519,5.086-10.948C284.561,81.101,277.06,73.66,267.477,70.246z"/>
			<path d="M469.333,341.333h-76.8V230.4c0-4.71-3.814-8.533-8.533-8.533s-8.533,3.823-8.533,8.533v119.467
				c0,4.71,3.814,8.533,8.533,8.533h76.493c-1.724,22.391-10.581,28.297-21.495,35.567c-13.781,9.19-29.397,19.601-29.397,58.3
				c0,4.71,3.814,8.533,8.533,8.533c4.719,0,8.533-3.823,8.533-8.533c0-29.568,9.617-35.977,21.803-44.1
				c13.781-9.19,29.397-19.601,29.397-58.3C477.867,345.156,474.052,341.333,469.333,341.333z"/>
			<path d="M73.003,393.967c-10.914-7.27-19.772-13.175-21.495-35.567H128c4.719,0,8.533-3.823,8.533-8.533V230.4
				c0-4.71-3.814-8.533-8.533-8.533s-8.533,3.823-8.533,8.533v110.933h-76.8c-4.719,0-8.533,3.823-8.533,8.533
				c0,38.699,15.616,49.109,29.397,58.3c12.186,8.124,21.803,14.532,21.803,44.1c0,4.71,3.814,8.533,8.533,8.533
				s8.533-3.823,8.533-8.533C102.4,413.568,86.784,403.157,73.003,393.967z"/>
			<path d="M384,375.467c-4.719,0-8.533,3.823-8.533,8.533v85.333c0,14.114-11.486,25.6-25.6,25.6H162.133
				c-14.114,0-25.6-11.486-25.6-25.6V384c0-4.71-3.814-8.533-8.533-8.533s-8.533,3.823-8.533,8.533v85.333
				c0,23.526,19.14,42.667,42.667,42.667h187.733c23.526,0,42.667-19.14,42.667-42.667V384
				C392.533,379.29,388.719,375.467,384,375.467z"/>
			<path d="M63.531,254.566c12.186,8.124,21.803,14.532,21.803,44.1c0,4.71,3.814,8.533,8.533,8.533s8.533-3.823,8.533-8.533
				c0-38.699-15.616-49.109-29.397-58.3c-10.914-7.27-19.772-13.175-21.495-35.567H128c4.719,0,8.533-3.823,8.533-8.533V76.8
				c0-4.71-3.814-8.533-8.533-8.533s-8.533,3.823-8.533,8.533v110.933h-76.8c-4.719,0-8.533,3.823-8.533,8.533
				C34.133,234.965,49.749,245.376,63.531,254.566z"/>
			<path d="M256,34.133c-37.641,0-68.267,30.626-68.267,68.267c0,37.641,30.626,68.267,68.267,68.267
				c37.641,0,68.267-30.626,68.267-68.267C324.267,64.759,293.641,34.133,256,34.133z M256,153.6c-28.237,0-51.2-22.963-51.2-51.2
				c0-28.237,22.963-51.2,51.2-51.2c28.237,0,51.2,22.963,51.2,51.2C307.2,130.637,284.237,153.6,256,153.6z"/>
		</g>
	</g>
</g>
<g>
</g>
<g>
</g>
<g>
</g>
<g>
</g>
<g>
</g>
<g>
</g>
<g>
</g>
<g>
</g>
<g>
</g>
<g>
</g>
<g>
</g>
<g>
</g>
<g>
</g>
<g>
</g>
<g>
</g>
</svg>
