<?xml version="1.0" encoding="iso-8859-1"?>
<!-- Generator: Adobe Illustrator 17.1.0, SVG Export Plug-In . SVG Version: 6.00 Build 0)  -->
<!DOCTYPE svg PUBLIC "-//W3C//DTD SVG 1.1//EN" "http://www.w3.org/Graphics/SVG/1.1/DTD/svg11.dtd">
<svg version="1.1" id="Capa_1" xmlns="http://www.w3.org/2000/svg" xmlns:xlink="http://www.w3.org/1999/xlink" x="0px" y="0px"
	 viewBox="0 0 418.321 418.321" style="enable-background:new 0 0 418.321 418.321;" xml:space="preserve">
<path d="M411.648,28.878c-16.253-16.257-56.864-15.088-86.822-5.736c-16.949,5.291-29.949,12.606-37.746,20.997l-59.895,59.895
	c-3.069-0.5-6.328,0.43-8.696,2.797l-70.501,70.502l-1.188-1.188c-3.906-3.904-10.236-3.904-14.143,0L8.763,300.039
	C3.112,305.69,0,313.224,0,321.253c0,8.029,3.112,15.563,8.763,21.213l14.055,14.054c0.028,0.03,0.058,0.06,0.087,0.089
	c0.029,0.029,0.059,0.059,0.089,0.087l36.532,36.532c5.65,5.651,13.184,8.764,21.213,8.764s15.563-3.112,21.214-8.763
	l123.895-123.895c3.905-3.905,3.905-10.237,0-14.143l-1.188-1.188l70.502-70.501c2.367-2.367,3.3-5.627,2.797-8.696L407.673,65.092
	c5.223-4.87,8.645-10.153,9.998-15.649C419.523,41.916,417.385,34.613,411.648,28.878z M87.81,379.086
	c-1.873,1.873-4.385,2.905-7.071,2.905c-2.687,0-5.197-1.031-7.07-2.905l-29.55-29.55l62.912-62.911
	c3.905-3.905,3.905-10.237,0-14.143c-3.906-3.904-10.236-3.904-14.143,0l-62.911,62.912l-7.072-7.071
	c-1.873-1.873-2.904-4.384-2.904-7.07c0-2.686,1.032-5.198,2.905-7.071l116.823-116.823L153.87,211.5l-36.233,36.233
	c-3.905,3.905-3.905,10.237,0,14.143c3.906,3.904,10.236,3.904,14.143,0l36.233-36.233l36.62,36.62L87.81,379.086z M210.518,239.861
	l-48.389-48.388l63.431-63.43l48.388,48.389L210.518,239.861z M285.14,159.34l-42.488-42.489l40.938-40.938
	c0.574,0.715,1.198,1.41,1.872,2.084c13.592,13.591,44.209,15.001,71.39,9.632L285.14,159.34z M398.25,44.661
	c-0.287,1.166-1.234,2.714-2.911,4.483c-0.05,0.048-0.1,0.096-0.148,0.145l-0.879,0.879c-4.706,4.451-13.717,10.018-27.987,14.472
	c0,0,0,0-0.001,0c-31.133,9.719-59.843,6.093-66.721-0.784c-0.922-0.922-0.851-1.209-0.744-1.643
	c1.032-4.193,10.613-13.326,31.928-19.979c13.574-4.238,26.688-5.938,37.732-5.938c14.285,0,25.108,2.845,28.988,6.725
	C398.428,43.94,398.357,44.228,398.25,44.661z"/>
<g>
</g>
<g>
</g>
<g>
</g>
<g>
</g>
<g>
</g>
<g>
</g>
<g>
</g>
<g>
</g>
<g>
</g>
<g>
</g>
<g>
</g>
<g>
</g>
<g>
</g>
<g>
</g>
<g>
</g>
</svg>
