<?xml version="1.0" encoding="iso-8859-1"?>
<!-- Generator: Adobe Illustrator 19.0.0, SVG Export Plug-In . SVG Version: 6.00 Build 0)  -->
<svg version="1.1" id="Capa_1" xmlns="http://www.w3.org/2000/svg" xmlns:xlink="http://www.w3.org/1999/xlink" x="0px" y="0px"
	 viewBox="0 0 40.089 40.089" style="enable-background:new 0 0 40.089 40.089;" xml:space="preserve">
<g>
	<path d="M23.232,0c-0.552,0-1,0.447-1,1c0,0.553,0.448,1,1,1c4.549,0,8.25,3.701,8.25,8.25v16.401
		c0,6.307-5.131,11.438-11.438,11.438c-6.307,0-11.438-5.131-11.438-11.438V10.25c0-4.549,3.701-8.25,8.25-8.25h2.188v6.833
		c0,0.553,0.448,1,1,1c0.552,0,1-0.447,1-1V1c0-0.553-0.448-1-1-1h-3.188c-5.652,0-10.25,4.598-10.25,10.25v16.401
		c0,7.409,6.028,13.438,13.438,13.438c7.41,0,13.437-6.028,13.437-13.438V10.25C33.482,4.598,28.884,0,23.232,0z"/>
	<path d="M20.044,12.125c-0.552,0-1,0.447-1,1v4.125c0,0.553,0.448,1,1,1c0.552,0,1-0.447,1-1v-4.125
		C21.044,12.572,20.597,12.125,20.044,12.125z"/>
</g>
<g>
</g>
<g>
</g>
<g>
</g>
<g>
</g>
<g>
</g>
<g>
</g>
<g>
</g>
<g>
</g>
<g>
</g>
<g>
</g>
<g>
</g>
<g>
</g>
<g>
</g>
<g>
</g>
<g>
</g>
</svg>
